<?xml version="1.0" standalone="no"?>
<!DOCTYPE svg PUBLIC "-//W3C//DTD SVG 20010904//EN"
 "http://www.w3.org/TR/2001/REC-SVG-20010904/DTD/svg10.dtd">
<svg version="1.0" xmlns="http://www.w3.org/2000/svg"
 width="24.000000pt" height="24.000000pt" viewBox="0 0 24.000000 24.000000"
 preserveAspectRatio="xMidYMid meet">

<g transform="translate(0.000000,24.000000) scale(0.100000,-0.100000)"
fill="#000000" stroke="none">
<path d="M27 213 c-4 -3 -7 -48 -7 -100 l0 -93 55 0 c30 0 55 5 55 10 0 6 -20
10 -45 10 l-45 0 0 80 0 80 45 0 c25 0 45 5 45 10 0 11 -93 14 -103 3z"/>
<path d="M160 162 c0 -4 5 -13 12 -20 9 -9 -1 -12 -45 -12 -31 0 -57 -4 -57
-10 0 -5 26 -10 57 -10 44 0 54 -3 45 -12 -7 -7 -12 -19 -12 -27 0 -11 11 -5
32 16 l32 32 -24 26 c-23 25 -40 32 -40 17z"/>
</g>
</svg>
